<svg width="64" height="64" viewBox="0 0 64 64" xmlns="http://www.w3.org/2000/svg">
  <!-- Solar panel background -->
  <rect x="8" y="16" width="48" height="32" fill="#4a5568" stroke="#2d3748" stroke-width="2" rx="2"/>
  
  <!-- Solar panel grid -->
  <g fill="#2d3748">
    <rect x="12" y="20" width="8" height="6"/>
    <rect x="24" y="20" width="8" height="6"/>
    <rect x="36" y="20" width="8" height="6"/>
    <rect x="48" y="20" width="4" height="6"/>
    
    <rect x="12" y="30" width="8" height="6"/>
    <rect x="24" y="30" width="8" height="6"/>
    <rect x="36" y="30" width="8" height="6"/>
    <rect x="48" y="30" width="4" height="6"/>
    
    <rect x="12" y="40" width="8" height="4"/>
    <rect x="24" y="40" width="8" height="4"/>
    <rect x="36" y="40" width="8" height="4"/>
    <rect x="48" y="40" width="4" height="4"/>
  </g>
  
  <!-- Green wind turbine blades -->
  <g transform="translate(32,32)">
    <!-- Blade 1 -->
    <ellipse cx="0" cy="-16" rx="3" ry="14" fill="#22c55e" transform="rotate(0)"/>
    <!-- Blade 2 -->
    <ellipse cx="0" cy="-16" rx="3" ry="14" fill="#16a34a" transform="rotate(120)"/>
    <!-- Blade 3 -->
    <ellipse cx="0" cy="-16" rx="3" ry="14" fill="#15803d" transform="rotate(240)"/>
    
    <!-- Center hub -->
    <circle cx="0" cy="0" r="4" fill="#374151"/>
  </g>
</svg>
